<?xml version="1.0" encoding="utf-8"?>
<!-- Generator: Adobe Illustrator 19.0.1, SVG Export Plug-In . SVG Version: 6.00 Build 0)  -->
<svg version="1.1" id="Слой_1" xmlns="http://www.w3.org/2000/svg" xmlns:xlink="http://www.w3.org/1999/xlink" x="0px" y="0px"
	 viewBox="-575 755.3 30 30" style="enable-background:new -575 755.3 30 30;" xml:space="preserve">
<style type="text/css">
	.st0{fill:#4DA6FF;}
	.st1{fill:none;stroke:#4DA6FF;stroke-width:1.5;stroke-miterlimit:10;}
	.st2{fill:none;stroke:#4DA6FF;stroke-miterlimit:10;}
</style>
<circle class="st0" cx="-566.2" cy="782.3" r="1.9"/>
<circle class="st0" cx="-554.6" cy="782.3" r="1.9"/>
<path class="st1" d="M-550.6,778.1c-6.3,0-11.9,0-18.9,0c-1.5-4.9-2.5-9.3-3.9-14.4c7.9-1.2,14.9-2.1,22.9-2.8"/>
<path class="st1" d="M-545.5,756.4c-1.4,0.3-4.5,0.7-4.5,0.7l-3,17.5c-5.3,0-12,0-17.3,0"/>
<line class="st2" x1="-568.7" y1="763.1" x2="-566.9" y2="774.5"/>
<line class="st2" x1="-564.3" y1="762.4" x2="-563.4" y2="774.5"/>
<line class="st2" x1="-559.7" y1="762" x2="-559.9" y2="774.5"/>
<line class="st2" x1="-555.4" y1="761.4" x2="-556.4" y2="774.5"/>
<line class="st2" x1="-573.2" y1="763.8" x2="-569.2" y2="778.1"/>
</svg>
